<?xml version="1.0" standalone="no"?><svg xmlns="http://www.w3.org/2000/svg" viewBox="0 0 1440 320"><path fill="#000000" fill-opacity="1" d="M0,288L30,266.7C60,245,120,203,180,208C240,213,300,267,360,288C420,309,480,299,540,272C600,245,660,203,720,197.3C780,192,840,224,900,245.3C960,267,1020,277,1080,261.3C1140,245,1200,203,1260,192C1320,181,1380,203,1410,213.3L1440,224L1440,320L1410,320C1380,320,1320,320,1260,320C1200,320,1140,320,1080,320C1020,320,960,320,900,320C840,320,780,320,720,320C660,320,600,320,540,320C480,320,420,320,360,320C300,320,240,320,180,320C120,320,60,320,30,320L0,320Z"></path></svg>