<?xml version="1.0" standalone="no"?>
<!DOCTYPE svg PUBLIC "-//W3C//DTD SVG 20010904//EN"
 "http://www.w3.org/TR/2001/REC-SVG-20010904/DTD/svg10.dtd">
<svg version="1.0" xmlns="http://www.w3.org/2000/svg"
 width="1920.000000pt" height="1920.000000pt" viewBox="0 0 1920.000000 1920.000000"
 preserveAspectRatio="xMidYMid meet">
<metadata>
Created by potrace 1.14, written by Peter Selinger 2001-2017
</metadata>
<g transform="translate(0.000000,1920.000000) scale(0.100000,-0.100000)"
fill="#000000" stroke="none">
<path d="M9088 18836 c-2 -2 -61 -6 -133 -10 -71 -4 -141 -9 -155 -10 -14 -2
-56 -7 -95 -10 -38 -4 -128 -16 -200 -27 -71 -11 -148 -22 -170 -26 -32 -4
-346 -74 -395 -87 -135 -37 -380 -116 -425 -137 -11 -5 -50 -20 -87 -34 -163
-60 -451 -201 -633 -310 -120 -72 -343 -219 -390 -257 -11 -9 -42 -33 -70 -54
-75 -56 -269 -220 -353 -299 -82 -77 -97 -88 -127 -91 -128 -11 -352 -50 -530
-90 -11 -3 -30 -7 -42 -10 -37 -7 -318 -92 -379 -114 -552 -199 -1124 -536
-1609 -950 -185 -158 -529 -494 -660 -644 -493 -568 -799 -1087 -1004 -1701
-79 -237 -152 -526 -176 -688 -3 -27 -8 -59 -11 -70 -2 -12 -6 -42 -9 -67 -3
-25 -8 -56 -10 -70 -4 -24 -11 -85 -20 -175 -4 -47 -14 -196 -20 -308 -3 -56
-8 -82 -21 -95 -22 -21 -166 -216 -221 -297 -131 -194 -299 -512 -393 -740
-123 -301 -249 -737 -295 -1020 -3 -16 -7 -41 -10 -55 -9 -48 -16 -95 -20
-125 -2 -16 -8 -70 -15 -120 -6 -49 -13 -112 -16 -140 -3 -27 -7 -68 -9 -90
-26 -227 -26 -886 0 -1115 2 -19 6 -64 10 -100 7 -74 10 -97 25 -195 18 -121
21 -138 36 -220 9 -44 18 -92 20 -108 31 -174 175 -638 249 -802 7 -16 25 -59
40 -95 44 -104 189 -386 260 -504 186 -308 408 -602 632 -837 30 -31 45 -56
48 -80 12 -103 17 -144 20 -158 1 -9 6 -38 9 -66 4 -27 9 -57 11 -65 2 -8 7
-31 10 -50 3 -19 13 -64 21 -100 9 -36 18 -76 20 -88 20 -101 94 -343 155
-506 66 -174 202 -467 286 -614 276 -485 581 -880 1013 -1313 174 -174 222
-220 351 -334 174 -155 488 -383 712 -519 187 -113 465 -249 657 -323 176 -68
429 -151 510 -168 8 -2 60 -15 115 -29 98 -24 321 -70 400 -81 22 -3 51 -8 65
-10 14 -2 45 -6 70 -9 74 -8 132 -15 180 -20 44 -5 178 -14 291 -20 31 -2 62
-7 70 -11 16 -10 88 -65 105 -80 22 -21 301 -205 384 -254 47 -28 175 -95 285
-150 383 -190 712 -304 1170 -407 6 -1 24 -5 40 -8 17 -3 55 -10 85 -16 30 -6
71 -13 90 -16 19 -3 60 -9 90 -14 30 -5 78 -12 105 -15 28 -3 61 -8 75 -10 14
-3 56 -7 95 -10 38 -4 84 -8 100 -10 205 -26 943 -26 1107 0 13 2 55 6 93 9
39 4 81 8 95 10 14 2 47 7 73 11 27 4 56 8 65 9 10 2 40 7 67 11 196 27 506
104 735 182 604 204 1197 558 1675 998 50 46 93 86 96 89 3 3 41 10 85 16 135
18 146 20 264 41 234 41 548 130 775 219 17 6 31 11 32 11 3 0 74 31 178 77
196 87 497 252 695 381 138 90 459 326 490 361 3 3 18 15 33 27 211 162 644
594 873 873 316 384 541 760 744 1245 31 75 108 297 140 405 29 96 80 295 96
375 8 40 24 121 29 148 3 15 7 37 9 50 3 12 10 58 16 102 6 44 13 91 15 105 3
14 7 54 11 90 3 36 8 79 10 95 4 37 15 201 18 277 2 54 6 61 91 176 86 117
219 319 283 432 57 98 219 432 260 535 56 140 127 339 158 442 44 150 53 183
88 338 31 136 45 203 61 305 3 19 10 60 15 90 5 30 12 75 15 100 3 25 8 61 10
80 3 19 7 67 11 105 3 39 7 81 10 95 18 115 26 758 11 958 -19 248 -40 419
-82 647 -47 260 -157 634 -255 870 -23 55 -46 114 -52 130 -22 60 -207 413
-278 530 -172 284 -346 517 -578 772 l-92 102 -10 78 c-6 43 -13 96 -16 118
-20 156 -73 392 -130 585 -193 648 -560 1295 -1058 1865 -125 143 -139 157
-331 350 -216 218 -385 371 -500 458 -5 4 -35 27 -65 51 -273 218 -697 470
-1013 602 -34 14 -75 32 -92 39 -185 81 -643 222 -815 250 -19 3 -42 8 -50 10
-8 2 -31 7 -50 10 -19 3 -42 8 -50 10 -58 17 -419 61 -585 71 -184 10 -198 13
-224 33 -165 127 -402 288 -531 359 -174 95 -396 201 -552 262 -101 40 -192
76 -203 81 -49 19 -279 89 -375 114 -8 2 -40 10 -70 18 -30 8 -82 21 -115 28
-33 7 -64 14 -70 15 -5 1 -50 10 -100 19 -49 9 -99 19 -110 21 -10 2 -37 6
-60 9 -22 3 -51 8 -65 10 -14 3 -45 7 -70 10 -25 3 -62 7 -82 10 -83 11 -117
14 -203 21 -49 4 -105 8 -125 10 -43 5 -677 13 -682 10z m468 -940 c113 -8
246 -23 319 -36 28 -5 61 -11 75 -14 491 -85 1021 -351 1420 -714 92 -84 116
-108 225 -227 437 -475 757 -1144 904 -1890 16 -82 32 -172 35 -200 4 -27 9
-57 11 -65 2 -8 6 -40 10 -70 3 -30 7 -73 10 -95 32 -257 39 -961 11 -1180 -3
-16 -7 -70 -10 -120 -4 -49 -9 -103 -11 -120 -2 -16 -7 -52 -10 -80 -9 -73
-24 -182 -35 -245 -5 -30 -11 -71 -14 -90 -29 -186 -103 -484 -171 -685 -239
-707 -618 -1233 -1155 -1601 -85 -58 -242 -146 -363 -204 -121 -57 -346 -145
-353 -137 -3 2 4 15 14 28 19 24 150 236 214 344 76 128 187 356 263 540 7 17
18 44 25 60 45 107 162 501 184 615 2 14 14 70 25 125 11 55 23 118 26 140 3
22 7 54 10 70 2 17 7 57 10 90 4 33 9 71 11 85 21 119 21 615 -1 765 -2 17 -6
55 -10 85 -14 138 -47 309 -95 495 -31 118 -119 391 -145 450 -7 17 -35 82
-61 145 -59 141 -220 462 -297 589 -31 52 -57 96 -57 98 0 8 -179 278 -256
384 -299 417 -699 836 -1119 1175 -92 74 -189 148 -241 184 -12 8 -66 46 -120
83 -527 367 -1110 629 -1659 747 -33 8 -64 15 -68 18 -8 4 48 42 68 46 5 2 42
17 80 35 280 130 726 262 1040 306 28 4 59 9 70 11 19 4 50 8 145 19 25 3 56
7 70 10 14 2 61 7 105 11 44 3 100 7 125 9 25 2 124 7 220 10 96 4 176 8 177
9 4 3 261 -2 349 -8z m4074 -1080 c247 -99 580 -282 825 -454 386 -269 835
-670 1040 -927 22 -27 42 -52 45 -55 69 -69 256 -369 343 -550 84 -176 180
-442 201 -552 2 -13 9 -41 14 -63 6 -22 14 -53 16 -70 3 -16 8 -39 10 -50 4
-21 22 -136 31 -195 33 -233 23 -627 -25 -910 -81 -482 -268 -979 -539 -1429
-74 -123 -241 -374 -260 -391 -4 -3 -26 -32 -50 -64 -147 -198 -532 -605 -796
-842 -695 -625 -1411 -1019 -2105 -1158 -69 -14 -147 -28 -175 -32 -27 -3 -58
-8 -67 -10 -114 -21 -583 -21 -651 1 -6 2 -34 6 -62 9 -231 26 -631 156 -845
276 l-25 14 35 8 c19 4 51 10 70 14 112 19 562 145 655 183 11 5 81 32 155 61
223 87 471 211 675 338 823 514 1396 1224 1728 2142 41 113 118 366 131 430 3
14 14 61 25 105 29 121 74 359 86 454 3 23 7 55 9 70 9 51 15 97 21 161 3 36
8 83 10 105 26 261 26 955 1 1105 -2 14 -7 63 -11 110 -3 47 -8 94 -10 105 -2
11 -7 43 -10 70 -5 45 -37 245 -51 320 -47 257 -146 603 -248 867 -69 179
-243 542 -297 620 -11 14 -19 28 -19 31 0 6 -58 100 -106 172 -22 33 -43 65
-47 72 -9 14 113 -26 273 -91z m-7708 -650 c100 -10 267 -31 323 -42 11 -2 36
-7 55 -10 74 -13 290 -67 400 -101 288 -88 621 -234 868 -380 41 -24 76 -43
78 -43 21 0 474 -322 566 -402 14 -13 37 -32 50 -42 198 -161 594 -563 808
-821 41 -49 77 -92 80 -95 3 -3 27 -34 55 -70 27 -36 52 -67 55 -70 29 -26
224 -312 318 -464 78 -127 248 -453 296 -566 58 -140 147 -389 161 -455 2 -11
16 -69 31 -130 32 -135 29 -123 44 -220 6 -44 13 -91 15 -103 22 -134 22 -593
0 -672 -2 -8 -6 -33 -10 -55 -37 -260 -124 -537 -245 -788 -17 -37 -36 -69
-40 -72 -4 -3 -11 14 -14 38 -4 23 -23 107 -42 187 -20 80 -37 152 -39 161
-25 115 -167 521 -237 679 -177 394 -415 769 -692 1090 -99 114 -372 374 -506
481 -126 101 -429 309 -450 309 -5 0 -10 5 -10 10 0 6 -5 10 -10 10 -6 0 -47
21 -92 46 -277 157 -631 302 -974 399 -50 14 -100 27 -110 29 -10 3 -66 16
-124 30 -58 14 -123 28 -145 31 -22 4 -56 10 -75 15 -49 12 -286 47 -400 59
-52 6 -115 13 -140 15 -252 27 -797 28 -1120 1 -104 -8 -177 -16 -200 -20 -14
-2 -50 -7 -80 -10 -69 -8 -204 -30 -340 -56 -58 -11 -116 -23 -130 -25 -64
-12 -222 -55 -395 -106 -112 -34 -372 -128 -453 -164 -29 -13 -55 -24 -57 -24
-8 0 -305 -147 -373 -184 -61 -34 -239 -142 -314 -192 l-38 -24 34 92 c19 51
37 102 41 113 53 148 203 455 306 627 59 98 161 256 186 288 6 8 52 69 101
135 183 244 346 429 593 675 259 256 485 422 783 574 180 92 456 198 576 221
12 2 46 11 74 19 71 20 162 37 281 52 22 3 46 7 53 10 8 2 66 7 130 10 65 4
118 7 120 9 5 4 309 -3 374 -9z m-292 -3580 c151 -9 312 -21 400 -31 25 -3 65
-8 90 -11 106 -12 249 -34 435 -69 255 -47 610 -153 840 -249 801 -338 1328
-861 1618 -1606 30 -78 58 -162 54 -166 -1 -1 -29 15 -62 37 -393 261 -789
452 -1190 574 -117 36 -365 98 -435 110 -19 3 -42 8 -50 10 -8 3 -32 7 -54 9
-21 3 -46 8 -55 10 -9 3 -41 7 -71 11 -30 3 -68 7 -85 10 -202 33 -626 38
-855 10 -48 -6 -171 -23 -230 -32 -272 -39 -672 -162 -1030 -316 -14 -6 -27
-11 -30 -12 -34 -10 -305 -150 -450 -232 -98 -56 -429 -268 -440 -282 -3 -4
-36 -29 -75 -56 -61 -43 -291 -220 -305 -235 -3 -3 -36 -32 -75 -65 -646 -549
-1180 -1242 -1499 -1945 -44 -97 -69 -154 -68 -157 1 -2 -11 -29 -25 -60 -58
-131 -197 -589 -215 -711 -1 -12 -7 -24 -11 -25 -10 -3 -98 188 -157 343 -106
278 -185 576 -230 875 -6 39 -13 80 -15 93 -2 13 -7 53 -10 90 -4 37 -8 74
-10 82 -3 8 -7 51 -10 95 -3 44 -8 100 -10 125 -22 250 -22 704 0 880 28 225
56 369 107 540 51 174 92 276 179 453 82 166 215 380 308 497 145 182 315 362
453 476 155 129 380 288 523 369 408 230 911 408 1385 489 190 33 193 34 255
40 28 3 73 8 100 11 96 11 131 14 260 21 72 3 131 7 132 8 5 4 507 -2 613 -8z
m11843 -538 c126 -262 254 -638 303 -883 2 -11 11 -54 19 -95 14 -71 38 -218
50 -305 3 -22 7 -53 10 -70 3 -16 7 -61 10 -100 3 -38 8 -81 10 -95 5 -29 13
-153 20 -285 6 -115 7 -526 1 -585 -3 -25 -7 -74 -11 -110 -8 -98 -22 -182
-60 -380 -12 -61 -94 -329 -115 -375 -5 -11 -21 -49 -36 -85 -123 -303 -360
-663 -593 -905 -241 -248 -450 -411 -786 -611 -265 -157 -801 -363 -1118 -429
-10 -2 -26 -6 -35 -9 -20 -6 -34 -9 -222 -42 -161 -28 -176 -30 -240 -38 -189
-22 -218 -24 -365 -32 -230 -13 -767 -6 -915 11 -19 2 -71 6 -115 9 -44 4 -96
8 -115 11 -19 2 -57 6 -85 10 -27 3 -61 7 -75 10 -14 2 -47 7 -75 10 -27 3
-63 8 -80 12 -16 3 -39 7 -50 8 -11 1 -38 5 -60 10 -22 4 -49 9 -60 11 -78 14
-133 26 -355 79 -8 2 -44 13 -80 23 -36 11 -96 29 -135 41 -169 51 -457 171
-620 260 -391 212 -671 445 -939 781 -107 135 -269 415 -341 590 -42 103 -96
253 -92 257 2 2 15 -5 28 -15 31 -24 249 -160 314 -197 162 -91 202 -113 322
-171 72 -35 156 -73 185 -85 29 -11 67 -27 83 -34 179 -82 572 -196 850 -246
130 -23 139 -24 235 -34 36 -4 73 -9 83 -11 40 -7 262 -17 387 -17 190 0 413
17 555 43 28 5 68 12 90 15 22 3 47 7 55 10 8 2 26 6 40 9 49 8 196 45 280 70
496 145 938 352 1392 652 131 87 389 275 471 344 213 178 348 303 517 475 63
64 120 122 125 129 6 6 44 49 86 96 193 216 388 472 539 710 48 74 90 142 94
150 4 8 24 44 46 80 70 116 257 502 313 645 97 245 185 530 212 687 6 30 13
48 19 48 2 0 15 -24 29 -52z m-9879 -1913 c158 -13 286 -35 440 -75 126 -33
296 -88 311 -101 5 -5 15 -9 22 -9 20 0 250 -107 258 -120 2 -4 -14 -11 -38
-14 -144 -23 -502 -122 -717 -198 -141 -50 -162 -58 -204 -77 -23 -10 -61 -26
-86 -36 -315 -133 -729 -387 -1000 -614 -30 -25 -68 -57 -85 -71 -113 -94
-426 -425 -520 -551 -11 -14 -38 -50 -61 -80 -53 -71 -194 -277 -194 -285 0
-3 -9 -18 -20 -34 -50 -70 -208 -378 -270 -526 -23 -54 -48 -112 -55 -129 -26
-57 -147 -429 -161 -490 -1 -5 -7 -30 -14 -55 -7 -25 -13 -52 -15 -60 -2 -8
-8 -33 -13 -55 -23 -86 -76 -365 -87 -454 -3 -23 -7 -55 -9 -70 -53 -315 -68
-999 -31 -1391 5 -62 16 -164 20 -200 10 -78 16 -126 20 -151 3 -14 7 -41 9
-60 3 -19 7 -46 10 -59 3 -14 8 -41 10 -60 21 -146 100 -468 166 -675 117
-363 303 -760 489 -1044 32 -47 60 -91 64 -97 11 -19 -238 73 -398 146 -170
78 -322 159 -485 259 -119 73 -123 75 -134 84 -6 4 -63 44 -126 88 -393 277
-847 703 -1092 1024 -135 178 -285 446 -366 655 -83 214 -158 503 -178 685 -2
21 -6 51 -9 65 -28 152 -22 661 10 805 2 11 7 43 10 70 10 81 24 150 66 318
67 269 158 519 282 777 54 113 80 162 172 325 76 135 240 375 373 545 36 46
125 154 131 160 4 3 35 39 70 80 79 92 443 456 563 564 49 43 145 125 215 183
71 57 137 112 148 121 101 83 507 358 585 396 8 4 47 25 85 47 76 43 328 167
385 189 19 7 39 17 45 22 5 4 16 8 25 8 8 0 26 6 40 13 56 29 305 108 460 145
267 65 605 91 884 67z m1150 -1077 c-4 -7 -29 -44 -54 -83 -226 -338 -418
-729 -541 -1100 -51 -153 -120 -415 -135 -509 -3 -21 -8 -48 -10 -60 -18 -93
-31 -178 -40 -251 -3 -33 -8 -69 -10 -79 -6 -33 -18 -287 -18 -386 1 -105 12
-341 19 -380 2 -14 11 -77 19 -140 21 -148 24 -165 63 -330 83 -356 248 -784
432 -1125 58 -107 80 -147 96 -173 6 -9 23 -39 39 -67 41 -70 217 -337 233
-353 7 -7 13 -17 13 -21 0 -4 8 -16 18 -27 9 -11 59 -75 111 -143 52 -68 101
-131 110 -140 9 -9 30 -35 46 -56 17 -22 37 -47 46 -55 9 -8 61 -64 115 -125
346 -384 782 -754 1209 -1025 208 -131 263 -163 510 -285 261 -129 502 -224
745 -295 41 -12 86 -26 100 -30 24 -8 209 -52 250 -59 11 -2 -240 -115 -349
-157 -104 -41 -367 -127 -423 -138 -12 -3 -59 -14 -103 -25 -91 -22 -268 -57
-335 -66 -25 -3 -52 -8 -60 -10 -8 -2 -37 -6 -65 -10 -27 -3 -84 -10 -125 -15
-69 -9 -153 -17 -255 -25 -71 -5 -418 -18 -505 -18 -106 0 -381 13 -390 18 -3
2 -33 7 -66 10 -32 3 -81 10 -109 15 -27 5 -63 12 -80 15 -133 22 -348 84
-495 142 -593 234 -1100 653 -1462 1208 -122 187 -257 442 -323 610 -15 39
-35 88 -45 110 -60 133 -169 509 -214 735 -28 138 -30 149 -46 265 -6 44 -13
95 -15 112 -5 31 -9 68 -20 172 -12 116 -18 286 -19 491 0 215 10 549 19 601
2 13 6 64 9 112 4 48 8 102 11 120 2 18 7 52 9 77 6 50 33 239 41 285 3 17 10
53 16 81 5 28 12 64 14 80 3 16 10 49 15 74 6 25 12 54 14 65 31 157 122 454
201 650 340 844 896 1404 1672 1685 122 44 127 45 117 28z m627 -440 c0 -7 2
-20 4 -28 1 -8 5 -31 9 -50 19 -120 145 -565 182 -647 8 -17 14 -35 14 -40 0
-4 15 -46 33 -93 97 -247 223 -501 333 -673 24 -37 44 -70 44 -73 0 -5 40 -64
50 -74 3 -3 10 -12 15 -22 17 -28 118 -173 124 -178 4 -3 30 -36 60 -74 242
-311 533 -588 866 -823 307 -217 707 -417 1081 -541 179 -60 208 -68 380 -111
140 -35 188 -45 294 -66 58 -11 329 -54 380 -59 30 -4 78 -9 105 -12 303 -34
908 -39 1205 -10 19 2 67 7 105 10 39 4 86 9 105 11 19 3 53 7 75 9 22 3 69 9
105 15 36 6 83 13 105 17 627 97 1277 347 1817 697 l58 37 -31 -87 c-127 -361
-296 -678 -573 -1078 -12 -16 -23 -32 -26 -35 -3 -3 -24 -30 -46 -60 -263
-354 -629 -741 -900 -951 -272 -211 -573 -368 -889 -463 -66 -20 -133 -40
-150 -45 -16 -5 -43 -12 -60 -15 -16 -4 -41 -9 -55 -12 -46 -10 -235 -42 -285
-48 -205 -25 -567 -26 -740 -1 -39 5 -109 15 -160 21 -22 3 -56 9 -75 14 -19
5 -53 12 -75 15 -22 4 -101 22 -175 42 -671 175 -1309 529 -1890 1048 -78 69
-462 456 -531 535 -36 41 -88 100 -114 130 -70 79 -261 320 -332 420 -417 583
-669 1172 -742 1735 -20 151 -23 200 -24 355 0 181 7 282 33 434 49 288 106
469 226 724 24 51 44 97 44 103 0 14 20 11 21 -3z"/>
</g>
</svg>
